PathFileType	4	(X/Y/Z)	C:/Users/beibeiliu/ov580/test_trc/User3\sequence.5_training_dense_right.trc
DataRate	CameraRate	NumFrames	NumMarkers	Units	OrigDataRate	OrigDataStartFrame	OrigNumFrames
120	120	16	19	mm	120	60	119
Frame#	Time	ThumbCMC			ThumbMCP			ThumbIP			ThumbTip			IndexMCP			IndexPIP			IndexTip			MiddleMCP			MiddlePIP			MiddleTip			RingMCP			RingPIP			RingTip			PinkyMCP			PinkyPIP			PinkyTip			BackHand1			BackHand2			BackHand3	
		X0	Y0	Z0	X1	Y1	Z1	X2	Y2	Z2	X3	Y3	Z3	X4	Y4	Z4	X5	Y5	Z5	X6	Y6	Z6	X7	Y7	Z7	X8	Y8	Z8	X9	Y9	Z9	X10	Y10	Z10	X11	Y11	Z11	X12	Y12	Z12	X13	Y13	Z13	X14	Y14	Z14	X15	Y15	Z15	X16	Y16	Z16	X17	Y17	Z17	X18	Y18	Z18	
59	0.491667	71.4075	-29.3776	-4.74547	45.2719	-26.1242	-19.8213	28.3848	-25.1264	-42.9949	10.9735	-24.8617	-52.9796	62.5368	-43.2301	-75.6792	58.5137	-73.266	-66.5408	71.761	-60.6613	-37.8272	82.7138	-55.6166	-80.5836	77.4827	-81.8692	-62.4292	88.0575	-60.5918	-32.6143	101.186	-62.3174	-74.8078	96.8839	-85.1208	-53.6112	102.522	-64.9055	-28.0941	118.703	-66.8175	-69.214	110.074	-84.4245	-48.2198	113.888	-64.1477	-27.6745	121.481	-21.0703	-44.0389	131.794	-19.3289	-8.56992	97.5375	-10.6245	-18.0993	
60	0.5	68.6123	-28.6056	-1.3111	49.5515	-27.7743	-21.8441	26.523	-24.0653	-39.8094	7.76951	-23.0858	-51.6907	64.8433	-46.3056	-77.9512	57.7592	-74.3016	-61.999	68.8945	-57.8049	-34.8329	82.1127	-51.8641	-79.5647	73.5121	-80.4204	-63.4193	91.2581	-56.6772	-31.9627	100.621	-65.5574	-74.4684	96.4955	-84.1014	-53.4538	102.155	-62.8869	-27.4722	119.513	-67.9937	-68.0141	105.522	-81.126	-46.173	116.589	-65.1035	-25.5677	123.983	-20.3296	-42.8798	132.028	-19.0561	-10.061	96.2789	-10.1098	-21.4772	
61	0.508333	68.4367	-29.1308	-4.82262	44.9496	-28.0014	-17.965	23.4288	-24.2482	-39.0101	10.6175	-24.5853	-52.6745	63.9883	-43.0388	-75.072	61.1334	-75.7833	-63.6854	66.6414	-60.7395	-36.4777	86.1321	-53.4064	-78.6889	74.2448	-81.6171	-61.4565	85.8787	-58.4905	-31.7379	98.4988	-62.2801	-73.0631	93.8997	-84.9841	-55.3541	100.791	-65.4189	-27.0396	114.469	-68.1836	-67.7109	108.882	-83.9378	-48.1978	113.297	-59.9457	-23.9379	122.796	-22.3128	-42.8008	130.912	-20.2869	-10.2675	92.596	-11.0518	-18.7906	
62	0.516667	67.7827	-28.034	-2.91066	46.7701	-27.8347	-20.0256	24.0019	-22.6886	-42.145	8.34949	-21.9795	-51.5919	67.1047	-43.2296	-75.3057	61.4122	-73.8748	-67.5797	67.3424	-59.0781	-35.8533	83.5029	-56.3994	-81.7606	74.9171	-80.7866	-63.4409	89.5437	-57.1586	-32.6168	102.925	-61.1317	-73.3561	92.5948	-84.0486	-52.1069	100.351	-60.6816	-26.3303	119.566	-67.1769	-68.3093	107.143	-82.3341	-46.9057	111.671	-59.7328	-26.191	122.333	-20.6592	-39.2966	132.935	-19.6227	-7.73751	94.3046	-12.6237	-20.1293	
63	0.525	67.2739	-27.5823	-4.17181	46.8592	-26.977	-21.5484	24.348	-22.8518	-39.9091	6.39897	-22.492	-54.6741	67.6919	-42.5102	-76.1199	55.9175	-73.0018	-65.1277	71.1561	-58.624	-38.0708	85.1192	-52.585	-80.6122	76.5795	-79.3584	-67.5663	91.6287	-56.9851	-33.1153	103.87	-59.3417	-73.8274	97.1189	-83.1878	-56.0256	101.479	-64.3271	-29.4998	119.607	-65.4625	-68.6059	107.046	-81.2795	-51.832	113.258	-63.4588	-26.1458	122.868	-18.3469	-42.4708	131.577	-19.2304	-6.9484	92.5168	-11.4568	-19.2781	
64	0.533333	70.4811	-30.3003	1.12304	44.7782	-28.6754	-21.8893	24.7602	-29.4729	-38.0077	11.2309	-31.3663	-59.436	63.6184	-37.6898	-75.8192	55.9104	-71.4421	-67.5209	69.2796	-59.7992	-40.0536	81.1396	-49.4097	-81.2351	78.2523	-78.6199	-69.1814	86.4189	-59.8309	-34.9737	102.391	-57.8765	-75.3479	97.5615	-84.0635	-55.2936	99.1374	-66.2584	-31.0157	117.439	-63.6378	-69.5588	107.607	-82.0175	-50.9959	115.248	-65.4368	-26.6178	124.015	-19.2712	-42.3983	132.819	-18.5483	-8.05917	95.7713	-11.8859	-16.8379	
65	0.541667	68.4125	-32.2528	-1.11818	48.458	-37.7937	-22.7361	28.3048	-40.9126	-43.2105	21.532	-49.7965	-65.083	65.5838	-35.7539	-77.1338	61.433	-69.6038	-75.466	68.254	-64.007	-45.7348	85.4202	-49.8802	-86.3389	78.6745	-77.0388	-74.893	84.9774	-62.4079	-39.3909	99.9843	-56.9539	-77.5023	94.5855	-81.609	-61.3604	97.268	-63.733	-32.8387	117.274	-62.8427	-71.1323	109.925	-81.348	-51.2682	113.038	-64.7238	-30.1271	123.878	-17.6487	-39.0433	130.444	-18.5632	-6.138	96.5272	-9.57697	-19.3932	
66	0.55	67.7047	-33.9823	-2.52728	49.2084	-43.4942	-24.3796	33.689	-50.1831	-52.8623	39.0318	-60.9445	-74.0392	67.4046	-34.825	-80.2677	57.5203	-64.1978	-81.8049	67.8457	-60.1892	-46.637	86.0907	-41.6236	-85.6404	79.1813	-73.5541	-79.7453	88.9432	-59.4877	-42.0827	102.82	-55.2229	-81.1161	97.9967	-79.8969	-62.7134	98.7326	-64.0052	-36.1635	119.835	-58.6964	-72.9639	110.934	-78.7822	-58.6053	117.109	-62.8671	-30.3566	125.294	-14.9004	-42.1346	131.726	-17.9093	-8.79645	95.8845	-10.5519	-15.7519	
67	0.558333	67.0767	-32.2231	-3.21591	49.8111	-42.36	-28.5795	43.0558	-50.166	-58.1645	48.075	-61.3425	-78.4041	68.5582	-27.5917	-80.9769	58.6676	-57.7768	-82.2649	70.9055	-55.8039	-51.0384	82.9861	-37.4958	-88.1117	80.0937	-66.7864	-83.7036	89.0683	-58.7911	-46.2877	106.453	-45.4637	-80.4125	97.7519	-73.7565	-69.804	100.584	-60.3738	-39.0991	123.089	-54.5532	-73.8959	108.456	-74.1409	-56.7277	116.383	-60.6414	-32.5656	124.904	-12.3828	-37.4559	134.92	-15.8215	-5.38109	93.8068	-6.43216	-16.9342	
68	0.566667	69.8922	-26.9684	-6.72332	53.7076	-35.7843	-31.0945	41.3219	-44.224	-61.9953	53.3992	-53.264	-84.3982	72.689	-16.666	-81.0101	64.7774	-47.5729	-87.9261	70.0838	-46.7668	-54.0737	90.2085	-27.826	-92.5322	83.5589	-56.3342	-87.4128	91.4717	-50.5253	-48.8404	109.766	-38.0629	-83.8256	99.1415	-64.0518	-72.6803	101.159	-49.9299	-39.9062	123.219	-45.6027	-76.2864	112.086	-64.7502	-64.563	116.264	-50.3058	-34.9181	126.038	-4.82281	-37.505	135.122	-10.1373	-9.2984	100.93	-0.735408	-18.9997	
69	0.575	77.2498	-17.5961	-16.0254	58.7004	-26.4475	-37.8336	49.5966	-33.0364	-70.4724	60.0516	-42.8162	-88.7204	73.7753	-7.67307	-88.1737	68.0636	-37.6884	-90.8483	75.2708	-38.6918	-58.4695	94.5239	-14.3582	-94.5107	86.2218	-45.3797	-91.5597	98.5169	-40.513	-53.6241	114.783	-24.8392	-86.6875	104.147	-52.0541	-78.2394	110.56	-41.0236	-44.9537	125.815	-33.6735	-80.5642	121.051	-56.2109	-68.4639	123.226	-43.9355	-41.0907	132.762	5.64093	-43.5224	135.251	-0.646893	-8.3126	101.272	6.91784	-17.9099	
70	0.583333	82.2445	-9.9772	-19.2588	64.478	-16.3042	-46.7332	54.6295	-21.8251	-77.094	72.2707	-28.9677	-97.9591	83.5172	1.90881	-95.5792	76.1305	-27.9691	-98.2996	82.3279	-31.3596	-63.0763	105.44	-2.70075	-99.6284	93.6812	-33.1809	-99.3733	103.666	-32.4895	-60.7383	119.503	-12.225	-90.772	112.329	-41.3659	-84.2853	111.682	-31.8144	-50.7632	133.4	-20.6526	-86.2188	125.885	-43.3407	-71.1803	125.185	-33.449	-46.5279	136.761	16.2941	-48.0713	140.024	10.2583	-16.7661	106.66	19.496	-24.8651	
71	0.591667	85.1131	-3.95005	-25.7008	65.3987	-6.89908	-51.5718	70.8841	-8.41579	-84.5338	94.1702	-14.4946	-100.214	87.6005	10.0291	-99.6449	87.7936	-22.3025	-108.109	87.4083	-34.6399	-79.4171	106.146	3.31943	-105.618	103.262	-27.0806	-105.148	107.446	-23.1467	-62.4706	125.899	-4.41421	-96.3844	125.885	-32.0998	-88.7316	119.609	-22.4522	-53.9368	143.378	-8.42743	-88.1246	133.605	-32.201	-80.0191	133.269	-25.5857	-52.3168	138.718	28.0849	-48.0382	140.727	18.6448	-14.9316	106.742	21.8711	-26.6383	
72	0.6	87.6977	-4.59341	-27.5348	71.0328	-7.95291	-59.8084	76.3066	-11.048	-90.1927	101.187	-16.4916	-100.418	94.5986	9.58497	-102.661	94.6336	-25.9753	-111.12	98.0194	-33.8064	-79.5817	113.464	2.70413	-108.244	114.666	-29.3835	-105.574	113.035	-25.1163	-67.4214	131.288	-1.73852	-98.2643	127.729	-32.5706	-88.844	127.59	-22.0099	-56.5266	147.054	-4.96715	-89.5483	138.743	-30.6677	-77.3532	139.391	-20.8307	-48.3169	138.9	30.7626	-51.7211	142.543	24.8151	-23.3185	104.515	25.3771	-35.957	
73	0.608333	87.1407	-8.74177	-34.2519	70.0793	-24.4711	-60.0748	77.1035	-34.1023	-88.7495	98.7723	-39.1809	-102.603	95.7461	-4.67786	-105.456	93.5128	-37.9536	-103.872	98.986	-34.8347	-71.9292	116.22	-9.71623	-108.103	116.179	-39.8144	-102.98	114.914	-32.1571	-63.6479	133.689	-13.1692	-96.8788	134.146	-43.7718	-83.5412	128.275	-29.2431	-53.2592	151.337	-17.5809	-87.2693	144.856	-41.0767	-71.9723	139.754	-25.6421	-44.0413	138.449	22.1421	-56.7143	141.219	19.7515	-22.39	106.253	19.8593	-36.6758	
74	0.616667	85.6217	-17.8639	-30.5795	72.8466	-38.0179	-56.2441	76.747	-54.2896	-79.3536	100.119	-61.962	-90.9551	94.8414	-25.9064	-100.527	93.4493	-57.3145	-89.2146	100.109	-40.8593	-62.5556	114.737	-32.3164	-102.053	114.797	-60.4576	-87.6974	114.808	-44.1955	-53.9945	133.319	-33.2337	-91.2304	129.866	-59.4553	-69.1776	125.582	-42.644	-45.1542	149.045	-36.8766	-80.9402	138.967	-55.603	-59.5542	134.895	-33.9748	-39.1535	141.287	8.70659	-59.1228	140.737	11.9195	-23.1001	106.339	12.1936	-42.7024	
